<?xml version="1.0"?>
<svg xmlns:svg="http://www.w3.org/2000/svg" xmlns="http://www.w3.org/2000/svg" xmlns:xlink="http://www.w3.org/1999/xlink" version="1.1" onload="init(evt)" width="1024" height="600"><style type="text/css">
				
			 		.territory:hover{
						fill:           #22aa44;
					}
					
				  .compass{
						fill:  #fff;
						stroke:  #000;
						stroke-width:  1.5;
					}

				  .button{
						fill:  #225EA8;
						stroke:  #0C2C84;
						stroke-miterlimit:	6;
						stroke-linecap:  round;
					}
				  .button:hover{
						stroke-width:  2;
					}
				  .plus-minus{
						fill:  #fff;
						pointer-events: none;
					}

					text.title {
						fill: black;
						font-weight: bold;
						font-size: 24px;
						font-family: sans-serif;
						text-anchor: middle;
					}

					text.link {
						fill: Black;
						font-weight: bold;
						font-size: 14px;
						font-family: serif;
						text-anchor: middle;
					}

					circle.Town {
						stroke: black;
						stroke-width: 1.5;
						fill: lightcyan;
					}

					circle.Town_Uninhabited {
						stroke: #8b8989;
						stroke-width: 1.5;
						stroke-dasharray: 6,2;
						fill: white;
					}

					text.Town {
						fill: black;
						font-size: 17px;
						font-weight: bold;
						text-anchor: middle;
					}

					text.Town_abandoned {
						fill: #cdc9c9;
						font-size: 17px;
						font-weight: bold;
						text-anchor: middle;
						text-decoration: line-through;
					}

					text.Town_small {
						fill: black;
						font-size: 15px;
						font-weight: bold;
						text-anchor: middle;
					}

					text.Town_abandoned_small {
						fill: #cdc9c9;
						font-size: 15px;
						font-weight: bold;
						text-anchor: middle;
					}

					text.Town_name {
						fill: Black;
						font-size: 17px;
						font-weight: bold;
					}

					text.compass {
						fill: black;
						font-size: 28px;
						font-weight: bold;
						font-variant: small-caps;
						text-anchor: middle;
					}

					polygon.compass {
						fill: cyan;
						stroke: black;
						stroke-width: 2;
					}

					polygon.ocean {
						fill:#D6ECF2;
						fill-opacity:1;
						stroke: #D6ECF2;
						stroke-width: 2;
						stroke-opacity: 1;
					}

					polygon.island {
						stroke: white;
						stroke-width: 2;
						stroke-opacity: 1;
						fill: white;
						fill-opacity:1;
					}

					polygon.compass_north {
						fill: cyan;
						stroke: black;
						stroke-width: 1;
					}

					text.scale {
						fill: black;
						font-size: 12px;
						font-weight: bold;
						font-family: sans-serif;
					}

					text.scale_right {
						fill: black;
						font-size: 12px;
						font-weight: bold;
						text-anchor: end;
					}

					rect.scale_light {
						fill: white;
						stroke: black;
						stroke-width: 1;
					}

					rect.scale_dark {
						fill: cyan;
						stroke: black;
						stroke-width: 1;
					}

					polyline.road {
						fill:none;

						stroke: #c0c;
						stroke-width: 4;
					}

					polyline.road_unofficial {
						fill:none;
						stroke: #770;
						stroke-width: 2;
						stroke-dasharray: 8, 1, 4, 1;
					}

					polyline.road_historic {
						fill:none;
						stroke: #ADA96E;
						stroke-width: 2;
						stroke-dasharray: 4, 1, 4, 1;
					}

					polyline.rail {
						fill:none;
						stroke-width: 6;
						stroke-dasharray: 8, 4, 8, 4;
					}


					polyline.river {
						fill:none;
						stroke:#D6ECF2;
						stroke-width: 3;
					}

					polyline.canal {
						fill:none;
						stroke:#0060f0;
						stroke-width: 3;
						stroke-dasharray: 8, 2, 8, 4;
					}

					rect.background {
						fill: none;
						stroke: gray;
						stroke-width: 1;
					}

					text.range {
						fill: gray;
						font-size: 25px;
						text-anchor: end;
					}

					text.range_v {
						fill: gray;
						font-size: 25px;
						text-anchor: end;
					}

					text.griefed {
						font-size:32px;
						font-weight:bold;
						text-anchor:middle;
						fill: #f30;
					}

					circle.griefed {
						stroke: #f30;
						stroke-width: 4;
						fill: none;
					}

					circle.map {
						stroke: none;
						stroke-width: 1.5;
						stroke-opacity: 1;
						fill: #D6ECF2;
						fill-opacity:1;
					}

					circle.mapborder {
						stroke: lightblue;
						stroke-width: 1.5;
						stroke-opacity: 1;
						fill: none;
						fill-opacity:1;
					}

					text.roadcrew_sign {
						fill:black;
						font-weight:bold;
						font-size:48px;
						font-family:sans-serif;
						text-anchor:middle;
					}

					path.roadcrew_sign_background {
						fill: #E87600;
					}

					path.roadcrew_sign_border {
						stroke: black;
						stroke-width: 4;
						fill: none;
					}

					line.offset {
						stroke: red;
						stroke-width: 2;
						stroke-dasharray: 2,1;
					}

					circle.offset {
						fill: black;
					}

					path.lock {
						stroke: none;
						stroke-width: 1;
						fill: darkred;
					}

					path.lock_shackle {
						stroke: darkred;
						stroke-width: 4;
						fill: none;
					}

					rect.Town_coords {
						fill: White;
						stroke-width:2;
						stroke: black;
						fill-opacity:1;
						stroke-opacity:.1;
					}

					rect.citylist {
						fill: White;
						stroke-width:2;
						stroke: black;
						fill-opacity:1;
						stroke-opacity:1;
					}

					text.Town_coords {
						font-size: 17px;
						fill: Black;
						text-anchor:middle;
					}

					text.Town_coords_name {
						font-size: 17px;
						font-weight: bold;
						fill: black;
						text-anchor: middle;
					}

					rect.toggleButton {
						fill: #E87600;
					}
					
					.draggable {
        		cursor: move;
      		}
				
			</style><script type="text/ecmascript">

					var transMatrix = [.356, 0, 0, .356, 5, -207];					
					var selectedElement = 0;
					var currentX = 0;
					var currentY = 0;
					var currentMatrix = 0;

					function selectElement(evt) {
						selectedElement = evt.target;
						currentX = evt.clientX;
						currentY = evt.clientY;
						currentMatrix = selectedElement.getAttributeNS(null, "transform").slice(7,-1).split(' ');
		
						for(var i=0; i&lt;currentMatrix.length; i++) {
							currentMatrix[i] = parseFloat(currentMatrix[i]);
						}
				
						selectedElement.setAttributeNS(null, "onmousemove", "moveElement(evt)");
						selectedElement.setAttributeNS(null, "onmouseout", "deselectElement(evt)");
						selectedElement.setAttributeNS(null, "onmouseup", "deselectElement(evt)");
					}
				
					function moveElement(evt) {
						var dx = evt.clientX - currentX;
						var dy = evt.clientY - currentY;
						currentMatrix[4] += dx;
						currentMatrix[5] += dy;
			
						selectedElement.setAttributeNS(null, "transform", "matrix(" + currentMatrix.join(' ') + ")");
						currentX = evt.clientX;
						currentY = evt.clientY;
					}
				
					function deselectElement(evt) {
						if(selectedElement != 0){
							selectedElement.removeAttributeNS(null, "onmousemove");
							selectedElement.removeAttributeNS(null, "onmouseout");
							selectedElement.removeAttributeNS(null, "onmouseup");
							selectedElement = 0;
						}
					}
						
					function init(evt)
					{
						if ( window.svgDocument == null )
						{
							svgDoc = evt.target.ownerDocument;

						}
						            mapMatrix = svgDoc.getElementById("map-matrix");
												width  = evt.target.getAttributeNS(null, "width");
												height = evt.target.getAttributeNS(null, "height");
					}
						
	        function pan(dx, dy)
					{

						transMatrix[4] += dx;
						transMatrix[5] += dy;

						newMatrix = "matrix(" +  transMatrix.join(' ') + ")";
						mapMatrix.setAttributeNS(null, "transform", newMatrix);
					}
										
					function zoom(size)
					{
						for (var i=0; i&lt;transMatrix.length; i++)
						{
							transMatrix[i] *= size;
						}
									transMatrix[4] += (1-size)*width/2;
									transMatrix[5] += (1-size)*height/2;

									newMatrix = "matrix(" +  transMatrix.join(' ') + ")";
									mapMatrix.setAttributeNS(null, "transform", newMatrix);
					}

					function show_Town_coords(evt, x, y, scale, name)
					{
						Town_coords_name.textContent = name;
						Town_coords_overworld.textContent = (x) + "," + (y);
						Town_coords.setAttribute("transform", "translate(" + ( x * scale)+ "," + (y * scale + 50) + ")scale(1.52)");
						Town_coords.setAttributeNS(null, "visibility", "visible");
					}

					function hide_Town_coords()
					{
						Town_coords.setAttributeNS(null, "visibility", "hidden");
					}

					function show_Town_coords_citylist(evt, x, y, name,c,r)
					{
						Town_coords_name_citylist.textContent = name;
						Town_coords_overworld_citylist.textContent = (x) + "," + (y);
						Town_coords_citylist.setAttribute("transform", "translate(" + c + "," + (r + 34) + ")");
						Town_coords_citylist.setAttributeNS(null, "visibility", "visible");
					}

					function hide_Town_coords_citylist()
					{
						Town_coords_citylist.setAttributeNS(null, "visibility", "hidden");
					}

					function toggleVisibility()
					{
						var road_historic = document.getElementById("road_historic");
						road_historic.style.display = "";
						if(road_historic.style.visibility == "hidden" ) {
							road_historic.style.visibility = "visible";
						}else{
							road_historic.style.visibility = "hidden";
						}

						var invert1 = document.getElementById("invert1");
						invert1.style.display = "";
						if(invert1.style.stroke == "white" ) {
							invert1.style.stroke = "black";
						}else{
							invert1.style.stroke = "white";
						}

						var invert2 = document.getElementById("invert2");
						invert2.style.display = "";
						if(invert2.style.stroke == "black" ) {
							invert2.style.stroke = "white";
						}else{
							invert2.style.stroke = "black";
						}
					}
					
					function toggleVisibilitymapkey()
					{
						var road_historic = document.getElementById("mapkey");
						road_historic.style.display = "";
						if(road_historic.style.visibility == "hidden" ) {
							road_historic.style.visibility = "visible";
						}else{
							road_historic.style.visibility = "hidden";
						}

						var invert1 = document.getElementById("invert9");
						invert1.style.display = "";
						if(invert1.style.stroke == "white" ) {
							invert1.style.stroke = "black";
						}else{
							invert1.style.stroke = "white";
						}

						var invert2 = document.getElementById("invert10");
						invert2.style.display = "";
						if(invert2.style.stroke == "black" ) {
							invert2.style.stroke = "white";
						}else{
							invert2.style.stroke = "black";
						}
					}

					function toggleVisibilityUnofficial()
					{
						var road_historic = document.getElementById("road_unofficial");
						road_historic.style.display = "";
						if(road_historic.style.visibility == "hidden" ) {
							road_historic.style.visibility = "visible";
						}else{
							road_historic.style.visibility = "hidden";
						}

						var invert1 = document.getElementById("invert5");
						invert1.style.display = "";
						if(invert1.style.stroke == "white" ) {
							invert1.style.stroke = "black";
						}else{
							invert1.style.stroke = "white";
						}

						var invert2 = document.getElementById("invert6");
						invert2.style.display = "";
						if(invert2.style.stroke == "black" ) {
							invert2.style.stroke = "white";
						}else{
							invert2.style.stroke = "black";
						}
					}

					function toggleVisibilityUninhabited()
					{
						var road_historic = document.getElementById("town_uninhabited");
						road_historic.style.display = "";
						if(road_historic.style.visibility == "hidden" ) {
							road_historic.style.visibility = "visible";
						}else{
							road_historic.style.visibility = "hidden";
						}

						var invert1 = document.getElementById("invert7");
						invert1.style.display = "";
						if(invert1.style.stroke == "white" ) {
							invert1.style.stroke = "black";
						}else{
							invert1.style.stroke = "white";
						}

						var invert2 = document.getElementById("invert8");
						invert2.style.display = "";
						if(invert2.style.stroke == "black" ) {
							invert2.style.stroke = "white";
						}else{
							invert2.style.stroke = "black";
						}
					}

					function toggleVisibilitycitylist()
					{
						document.getElementById("citylist").style.display = "";
						if(document.getElementById("citylist").style.visibility == "hidden" ) {
							document.getElementById("citylist").style.visibility = "visible";
						}else{
							document.getElementById("citylist").style.visibility = "hidden";
						}

						document.getElementById("invert3").style.display = "";
						if(document.getElementById("invert3").style.stroke == "white" ) {
							document.getElementById("invert3").style.stroke = "black";
						}else{
							document.getElementById("invert3").style.stroke = "white";
						}

						document.getElementById("invert4").style.display = "";
						if(document.getElementById("invert4").style.stroke == "black" ) {
							document.getElementById("invert4").style.stroke = "white";
						}else{
							document.getElementById("invert4").style.stroke = "black";
						}
					}
					
			</script><defs><filter id="dropshadow" height="130%"><feGaussianBlur in="SourceAlpha" stdDeviation="2"/><feOffset dx="2" dy="2" result="offsetblur"/><feMerge><feMergeNode/><feMergeNode in="SourceGraphic"/></feMerge></filter></defs><rect style="stroke: none; stroke-width:2; fill:white" x="1" y="1" width="1022" height="598"/><g id="map-matrix" transform="matrix(.356 0 0 .356 5 -207)" onmousedown="selectElement(evt)"><rect style="fill:white" x="0" y="0" height="2850" width="2850"/><g transform="translate(1425,1425)"><circle class="map" r="1425"/><g id="island"/><g id="ocean"/><g id="river"/><circle class="mapborder" r="1425"/><line style="stroke:gray;stroke-width:1" x1="1330" y1="1425" x2="1330" y2="-1425"/><line style="stroke:gray;stroke-width:1" x1="-1330" y1="1425" x2="-1330" y2="-1425"/><line style="stroke:gray;stroke-width:1" y1="1330" x1="1425" y2="1330" x2="-1425"/><line style="stroke:gray;stroke-width:1" y1="-1330" x1="1425" y2="-1330" x2="-1425"/><text class="range" transform="translate(-5,-1400)" x="1330">14000</text><text class="range" transform="translate(-5,1420)" x="1330">14000</text><text class="range_v" transform="translate(1420,-5)" y="1330">14000</text><text class="range_v" transform="translate(-1335,-5)" y="1330">14000</text><text class="range" transform="translate(-5,-1400)" x="-1330">-14000</text><text class="range" transform="translate(-5,1420)" x="-1330">-14000</text><text class="range_v" transform="translate(1420,-5)" y="-1330">-14000</text><text class="range_v" transform="translate(-1335,-5)" y="-1330">-14000</text><line style="stroke:gray;stroke-width:1" x1="1235" y1="1425" x2="1235" y2="-1425"/><line style="stroke:gray;stroke-width:1" x1="-1235" y1="1425" x2="-1235" y2="-1425"/><line style="stroke:gray;stroke-width:1" y1="1235" x1="1425" y2="1235" x2="-1425"/><line style="stroke:gray;stroke-width:1" y1="-1235" x1="1425" y2="-1235" x2="-1425"/><text class="range" transform="translate(-5,-1400)" x="1235">13000</text><text class="range" transform="translate(-5,1420)" x="1235">13000</text><text class="range_v" transform="translate(1420,-5)" y="1235">13000</text><text class="range_v" transform="translate(-1335,-5)" y="1235">13000</text><text class="range" transform="translate(-5,-1400)" x="-1235">-13000</text><text class="range" transform="translate(-5,1420)" x="-1235">-13000</text><text class="range_v" transform="translate(1420,-5)" y="-1235">-13000</text><text class="range_v" transform="translate(-1335,-5)" y="-1235">-13000</text><line style="stroke:gray;stroke-width:1" x1="1140" y1="1425" x2="1140" y2="-1425"/><line style="stroke:gray;stroke-width:1" x1="-1140" y1="1425" x2="-1140" y2="-1425"/><line style="stroke:gray;stroke-width:1" y1="1140" x1="1425" y2="1140" x2="-1425"/><line style="stroke:gray;stroke-width:1" y1="-1140" x1="1425" y2="-1140" x2="-1425"/><text class="range" transform="translate(-5,-1400)" x="1140">12000</text><text class="range" transform="translate(-5,1420)" x="1140">12000</text><text class="range_v" transform="translate(1420,-5)" y="1140">12000</text><text class="range_v" transform="translate(-1335,-5)" y="1140">12000</text><text class="range" transform="translate(-5,-1400)" x="-1140">-12000</text><text class="range" transform="translate(-5,1420)" x="-1140">-12000</text><text class="range_v" transform="translate(1420,-5)" y="-1140">-12000</text><text class="range_v" transform="translate(-1335,-5)" y="-1140">-12000</text><line style="stroke:gray;stroke-width:1" x1="1045" y1="1425" x2="1045" y2="-1425"/><line style="stroke:gray;stroke-width:1" x1="-1045" y1="1425" x2="-1045" y2="-1425"/><line style="stroke:gray;stroke-width:1" y1="1045" x1="1425" y2="1045" x2="-1425"/><line style="stroke:gray;stroke-width:1" y1="-1045" x1="1425" y2="-1045" x2="-1425"/><text class="range" transform="translate(-5,-1400)" x="1045">11000</text><text class="range" transform="translate(-5,1420)" x="1045">11000</text><text class="range_v" transform="translate(1420,-5)" y="1045">11000</text><text class="range_v" transform="translate(-1335,-5)" y="1045">11000</text><text class="range" transform="translate(-5,-1400)" x="-1045">-11000</text><text class="range" transform="translate(-5,1420)" x="-1045">-11000</text><text class="range_v" transform="translate(1420,-5)" y="-1045">-11000</text><text class="range_v" transform="translate(-1335,-5)" y="-1045">-11000</text><line style="stroke:gray;stroke-width:1" x1="950" y1="1425" x2="950" y2="-1425"/><line style="stroke:gray;stroke-width:1" x1="-950" y1="1425" x2="-950" y2="-1425"/><line style="stroke:gray;stroke-width:1" y1="950" x1="1425" y2="950" x2="-1425"/><line style="stroke:gray;stroke-width:1" y1="-950" x1="1425" y2="-950" x2="-1425"/><text class="range" transform="translate(-5,-1400)" x="950">10000</text><text class="range" transform="translate(-5,1420)" x="950">10000</text><text class="range_v" transform="translate(1420,-5)" y="950">10000</text><text class="range_v" transform="translate(-1335,-5)" y="950">10000</text><text class="range" transform="translate(-5,-1400)" x="-950">-10000</text><text class="range" transform="translate(-5,1420)" x="-950">-10000</text><text class="range_v" transform="translate(1420,-5)" y="-950">-10000</text><text class="range_v" transform="translate(-1335,-5)" y="-950">-10000</text><line style="stroke:gray;stroke-width:1" x1="855" y1="1425" x2="855" y2="-1425"/><line style="stroke:gray;stroke-width:1" x1="-855" y1="1425" x2="-855" y2="-1425"/><line style="stroke:gray;stroke-width:1" y1="855" x1="1425" y2="855" x2="-1425"/><line style="stroke:gray;stroke-width:1" y1="-855" x1="1425" y2="-855" x2="-1425"/><text class="range" transform="translate(-5,-1400)" x="855">9000</text><text class="range" transform="translate(-5,1420)" x="855">9000</text><text class="range_v" transform="translate(1420,-5)" y="855">9000</text><text class="range_v" transform="translate(-1335,-5)" y="855">9000</text><text class="range" transform="translate(-5,-1400)" x="-855">-9000</text><text class="range" transform="translate(-5,1420)" x="-855">-9000</text><text class="range_v" transform="translate(1420,-5)" y="-855">-9000</text><text class="range_v" transform="translate(-1335,-5)" y="-855">-9000</text><line style="stroke:gray;stroke-width:1" x1="760" y1="1425" x2="760" y2="-1425"/><line style="stroke:gray;stroke-width:1" x1="-760" y1="1425" x2="-760" y2="-1425"/><line style="stroke:gray;stroke-width:1" y1="760" x1="1425" y2="760" x2="-1425"/><line style="stroke:gray;stroke-width:1" y1="-760" x1="1425" y2="-760" x2="-1425"/><text class="range" transform="translate(-5,-1400)" x="760">8000</text><text class="range" transform="translate(-5,1420)" x="760">8000</text><text class="range_v" transform="translate(1420,-5)" y="760">8000</text><text class="range_v" transform="translate(-1335,-5)" y="760">8000</text><text class="range" transform="translate(-5,-1400)" x="-760">-8000</text><text class="range" transform="translate(-5,1420)" x="-760">-8000</text><text class="range_v" transform="translate(1420,-5)" y="-760">-8000</text><text class="range_v" transform="translate(-1335,-5)" y="-760">-8000</text><line style="stroke:gray;stroke-width:1" x1="665" y1="1425" x2="665" y2="-1425"/><line style="stroke:gray;stroke-width:1" x1="-665" y1="1425" x2="-665" y2="-1425"/><line style="stroke:gray;stroke-width:1" y1="665" x1="1425" y2="665" x2="-1425"/><line style="stroke:gray;stroke-width:1" y1="-665" x1="1425" y2="-665" x2="-1425"/><text class="range" transform="translate(-5,-1400)" x="665">7000</text><text class="range" transform="translate(-5,1420)" x="665">7000</text><text class="range_v" transform="translate(1420,-5)" y="665">7000</text><text class="range_v" transform="translate(-1335,-5)" y="665">7000</text><text class="range" transform="translate(-5,-1400)" x="-665">-7000</text><text class="range" transform="translate(-5,1420)" x="-665">-7000</text><text class="range_v" transform="translate(1420,-5)" y="-665">-7000</text><text class="range_v" transform="translate(-1335,-5)" y="-665">-7000</text><line style="stroke:gray;stroke-width:1" x1="570" y1="1425" x2="570" y2="-1425"/><line style="stroke:gray;stroke-width:1" x1="-570" y1="1425" x2="-570" y2="-1425"/><line style="stroke:gray;stroke-width:1" y1="570" x1="1425" y2="570" x2="-1425"/><line style="stroke:gray;stroke-width:1" y1="-570" x1="1425" y2="-570" x2="-1425"/><text class="range" transform="translate(-5,-1400)" x="570">6000</text><text class="range" transform="translate(-5,1420)" x="570">6000</text><text class="range_v" transform="translate(1420,-5)" y="570">6000</text><text class="range_v" transform="translate(-1335,-5)" y="570">6000</text><text class="range" transform="translate(-5,-1400)" x="-570">-6000</text><text class="range" transform="translate(-5,1420)" x="-570">-6000</text><text class="range_v" transform="translate(1420,-5)" y="-570">-6000</text><text class="range_v" transform="translate(-1335,-5)" y="-570">-6000</text><line style="stroke:gray;stroke-width:1" x1="475" y1="1425" x2="475" y2="-1425"/><line style="stroke:gray;stroke-width:1" x1="-475" y1="1425" x2="-475" y2="-1425"/><line style="stroke:gray;stroke-width:1" y1="475" x1="1425" y2="475" x2="-1425"/><line style="stroke:gray;stroke-width:1" y1="-475" x1="1425" y2="-475" x2="-1425"/><text class="range" transform="translate(-5,-1400)" x="475">5000</text><text class="range" transform="translate(-5,1420)" x="475">5000</text><text class="range_v" transform="translate(1420,-5)" y="475">5000</text><text class="range_v" transform="translate(-1335,-5)" y="475">5000</text><text class="range" transform="translate(-5,-1400)" x="-475">-5000</text><text class="range" transform="translate(-5,1420)" x="-475">-5000</text><text class="range_v" transform="translate(1420,-5)" y="-475">-5000</text><text class="range_v" transform="translate(-1335,-5)" y="-475">-5000</text><line style="stroke:gray;stroke-width:1" x1="380" y1="1425" x2="380" y2="-1425"/><line style="stroke:gray;stroke-width:1" x1="-380" y1="1425" x2="-380" y2="-1425"/><line style="stroke:gray;stroke-width:1" y1="380" x1="1425" y2="380" x2="-1425"/><line style="stroke:gray;stroke-width:1" y1="-380" x1="1425" y2="-380" x2="-1425"/><text class="range" transform="translate(-5,-1400)" x="380">4000</text><text class="range" transform="translate(-5,1420)" x="380">4000</text><text class="range_v" transform="translate(1420,-5)" y="380">4000</text><text class="range_v" transform="translate(-1335,-5)" y="380">4000</text><text class="range" transform="translate(-5,-1400)" x="-380">-4000</text><text class="range" transform="translate(-5,1420)" x="-380">-4000</text><text class="range_v" transform="translate(1420,-5)" y="-380">-4000</text><text class="range_v" transform="translate(-1335,-5)" y="-380">-4000</text><line style="stroke:gray;stroke-width:1" x1="285" y1="1425" x2="285" y2="-1425"/><line style="stroke:gray;stroke-width:1" x1="-285" y1="1425" x2="-285" y2="-1425"/><line style="stroke:gray;stroke-width:1" y1="285" x1="1425" y2="285" x2="-1425"/><line style="stroke:gray;stroke-width:1" y1="-285" x1="1425" y2="-285" x2="-1425"/><text class="range" transform="translate(-5,-1400)" x="285">3000</text><text class="range" transform="translate(-5,1420)" x="285">3000</text><text class="range_v" transform="translate(1420,-5)" y="285">3000</text><text class="range_v" transform="translate(-1335,-5)" y="285">3000</text><text class="range" transform="translate(-5,-1400)" x="-285">-3000</text><text class="range" transform="translate(-5,1420)" x="-285">-3000</text><text class="range_v" transform="translate(1420,-5)" y="-285">-3000</text><text class="range_v" transform="translate(-1335,-5)" y="-285">-3000</text><line style="stroke:gray;stroke-width:1" x1="190" y1="1425" x2="190" y2="-1425"/><line style="stroke:gray;stroke-width:1" x1="-190" y1="1425" x2="-190" y2="-1425"/><line style="stroke:gray;stroke-width:1" y1="190" x1="1425" y2="190" x2="-1425"/><line style="stroke:gray;stroke-width:1" y1="-190" x1="1425" y2="-190" x2="-1425"/><text class="range" transform="translate(-5,-1400)" x="190">2000</text><text class="range" transform="translate(-5,1420)" x="190">2000</text><text class="range_v" transform="translate(1420,-5)" y="190">2000</text><text class="range_v" transform="translate(-1335,-5)" y="190">2000</text><text class="range" transform="translate(-5,-1400)" x="-190">-2000</text><text class="range" transform="translate(-5,1420)" x="-190">-2000</text><text class="range_v" transform="translate(1420,-5)" y="-190">-2000</text><text class="range_v" transform="translate(-1335,-5)" y="-190">-2000</text><line style="stroke:gray;stroke-width:1" x1="95" y1="1425" x2="95" y2="-1425"/><line style="stroke:gray;stroke-width:1" x1="-95" y1="1425" x2="-95" y2="-1425"/><line style="stroke:gray;stroke-width:1" y1="95" x1="1425" y2="95" x2="-1425"/><line style="stroke:gray;stroke-width:1" y1="-95" x1="1425" y2="-95" x2="-1425"/><text class="range" transform="translate(-5,-1400)" x="95">1000</text><text class="range" transform="translate(-5,1420)" x="95">1000</text><text class="range_v" transform="translate(1420,-5)" y="95">1000</text><text class="range_v" transform="translate(-1335,-5)" y="95">1000</text><text class="range" transform="translate(-5,-1400)" x="-95">-1000</text><text class="range" transform="translate(-5,1420)" x="-95">-1000</text><text class="range_v" transform="translate(1420,-5)" y="-95">-1000</text><text class="range_v" transform="translate(-1335,-5)" y="-95">-1000</text><line style="stroke:gray;stroke-width:1" x1="0" y1="1425" x2="0" y2="-1425"/><line style="stroke:gray;stroke-width:1" x1="0" y1="1425" x2="0" y2="-1425"/><line style="stroke:gray;stroke-width:1" y1="0" x1="1425" y2="0" x2="-1425"/><line style="stroke:gray;stroke-width:1" y1="0" x1="1425" y2="0" x2="-1425"/><text class="range" transform="translate(-5,-1400)" x="0">0</text><text class="range" transform="translate(-5,1420)" x="0">0</text><text class="range_v" transform="translate(1420,-5)" y="0">0</text><text class="range_v" transform="translate(-1335,-5)" y="0">0</text><text class="range" transform="translate(-5,-1400)" x="0">0</text><text class="range" transform="translate(-5,1420)" x="0">0</text><text class="range_v" transform="translate(1420,-5)" y="0">0</text><text class="range_v" transform="translate(-1335,-5)" y="0">0</text><line style="stroke:gray;stroke-width:2" x1="0" y1="1425" x2="0" y2="-1425"/><line style="stroke:gray;stroke-width:2" y1="0" x1="1425" y2="0" x2="-1425"/><rect style="stroke: gray; stroke-width:1; fill:none" x="-1425" y="-1425" height="2850" width="2850"/></g><g transform="translate(1425,1425)"><g id="road_offical"/><g id="road_unofficial" style="visibility: hidden;"/><g id="road_historic" style="visibility: hidden;"/><g id="railline"/><g id="roadcanal"/><g id="town_inhabited"><g onmouseout="hide_Town_coords()" transform="translate(0,0) scale(1.52)" onmousemove="show_Town_coords(evt,0,0,0.095,&quot;0,0&quot;)"><circle r="16" class="Town"/><text y="5" class="Town">00</text></g></g><g id="town_uninhabited" style="visibility: hidden;"/><g id="Town_coords" visibility="hidden" transform="scale(1.52)"><rect class="Town_coords" x="-100" y="-17" width="200" height="50" filter="url(#dropshadow)"/><text class="Town_coords_name" y="5" id="Town_coords_name">Unknown</text><text class="Town_coords" y="28" id="Town_coords_overworld">O: 0,0</text></g></g><script type="text/ecmascript">
				
					Town_coords = document.getElementById('Town_coords');
					Town_coords_overworld = document.getElementById('Town_coords_overworld');
					Town_coords_name = document.getElementById('Town_coords_name');
				
				</script></g><g transform="translate(30,30)" filter="url(#dropshadow)"><g transform="translate(69,69) scale(.3)" filter="url(#dropshadow)"><path class="roadcrew_sign_background" d="M-200 0 L0 200 L200 0 L0 -200 Z"/><path transform="scale(0.97)" class="roadcrew_sign_border" d="M-190 -10 Q -200 0 -190 10 L -10 190 Q 0 200 10 190 L 190 10 Q 200 0 190 -10 L 10 -190 Q 0 -200 -10 -190 Z"/><g transform="translate(0,-45)"><text class="roadcrew_sign"><tspan x="0" y="25">CIVCRAFT</tspan><tspan x="0" y="85">ROADCREW</tspan></text></g></g><g transform="translate(19,-22)"><path class="button" onclick="pan( 0, 50)" d="M50 10 l12   20 a40, 70 0 0,0 -24,  0z"/></g><g transform="translate(-22,19)"><path class="button" onclick="pan( 50, 0)" d="M10 50 l20  -12 a70, 40 0 0,0   0, 24z"/></g><g transform="translate(19,60)"><path class="button" onclick="pan( 0,-50)" d="M50 90 l12  -20 a40, 70 0 0,1 -24,  0z"/></g><g transform="translate(60,19)"><path class="button" onclick="pan(-50, 0)" d="M90 50 l-20 -12 a70, 40 0 0,1   0, 24z"/></g><circle class="button" cx="69" cy="103" r="8" onclick="zoom(0.8)"/><circle class="button" cx="69" cy="35" r="8" onclick="zoom(1.25)"/><rect class="plus-minus" x="65" y="101.5" width="8" height="3"/><rect class="plus-minus" x="65" y="33.5" width="8" height="3"/><rect class="plus-minus" x="67.5" y="31" width="3" height="8"/></g><g transform="translate(925,65) scale(1)"><g transform="translate(0, 0)" onclick="toggleVisibilitycitylist();" filter="url(#dropshadow)"><rect class="toggleButton" x="-50" y="-25" width="100" height="50"/><rect style="stroke: black; stroke-width:2; fill:none" x="-48" y="-23" width="96" height="46"/><g id="invert3" style="stroke: white"><line x1="-50" y1="-25" x2="49" y2="-25" stroke-width="1"/><line x1="-50" y1="-25" x2="-50" y2="24" stroke-width="1"/></g><g id="invert4" style="stroke: black"><line x1="50" y1="-25" x2="50" y2="25" stroke-width="1"/><line x1="-50" y1="25" x2="50" y2="25" stroke-width="1"/></g><g><text class="scale"><tspan x="-30" y="-2">Show</tspan><tspan x="-30" y="12">City List</tspan><tspan x="-30" y="17"/></text></g></g><g transform="translate(0, 70)" onclick="toggleVisibilitymapkey();" filter="url(#dropshadow)"><rect class="toggleButton" x="-50" y="-25" width="100" height="50"/><rect style="stroke: black; stroke-width:2; fill:none" x="-48" y="-23" width="96" height="46"/><g id="invert9" style="stroke: white"><line x1="-50" y1="-25" x2="49" y2="-25" stroke-width="1"/><line x1="-50" y1="-25" x2="-50" y2="24" stroke-width="1"/></g><g id="invert10" style="stroke: black"><line x1="50" y1="-25" x2="50" y2="25" stroke-width="1"/><line x1="-50" y1="25" x2="50" y2="25" stroke-width="1"/></g><g><text class="scale"><tspan x="-30" y="-2">Show</tspan><tspan x="-30" y="12">Map Key</tspan><tspan x="-30" y="17"/></text></g></g><g transform="translate(0, 140)" onclick="toggleVisibilityUnofficial();" filter="url(#dropshadow)"><rect class="toggleButton" x="-50" y="-25" width="100" height="50"/><rect style="stroke: black; stroke-width:2; fill:none" x="-48" y="-23" width="96" height="46"/><g id="invert5" style="stroke: white"><line x1="-50" y1="-25" x2="49" y2="-25" stroke-width="1"/><line x1="-50" y1="-25" x2="-50" y2="24" stroke-width="1"/></g><g id="invert6" style="stroke: black"><line x1="50" y1="-25" x2="50" y2="25" stroke-width="1"/><line x1="-50" y1="25" x2="50" y2="25" stroke-width="1"/></g><g><text class="scale"><tspan x="-30" y="-7">Show</tspan><tspan x="-30" y="5">Unofficial</tspan><tspan x="-30" y="17">Roads</tspan></text></g></g><g transform="translate(1, 210)" onclick="toggleVisibility();" filter="url(#dropshadow)"><rect class="toggleButton" x="-50" y="-25" width="100" height="50"/><rect style="stroke: black; stroke-width:2; fill:none" x="-48" y="-23" width="96" height="46"/><g id="invert1" style="stroke: white"><line x1="-50" y1="-25" x2="49" y2="-25" stroke-width="1"/><line x1="-50" y1="-25" x2="-50" y2="24" stroke-width="1"/></g><g id="invert2" style="stroke: black"><line x1="50" y1="-25" x2="50" y2="25" stroke-width="1"/><line x1="-50" y1="25" x2="50" y2="25" stroke-width="1"/></g><g><text class="scale"><tspan x="-30" y="-7">Show</tspan><tspan x="-30" y="5">Historic</tspan><tspan x="-30" y="17">Roads</tspan></text></g></g><g transform="translate(0, 280)" onclick="toggleVisibilityUninhabited();" filter="url(#dropshadow)"><rect class="toggleButton" x="-50" y="-25" width="100" height="50"/><rect style="stroke: black; stroke-width:2; fill:none" x="-48" y="-23" width="96" height="46"/><g id="invert7" style="stroke: white"><line x1="-50" y1="-25" x2="49" y2="-25" stroke-width="1"/><line x1="-50" y1="-25" x2="-50" y2="24" stroke-width="1"/></g><g id="invert8" style="stroke: black"><line x1="50" y1="-25" x2="50" y2="25" stroke-width="1"/><line x1="-50" y1="25" x2="50" y2="25" stroke-width="1"/></g><g><text class="scale"><tspan x="-43" y="-7">Show</tspan><tspan x="-43" y="5">Uninhabited</tspan><tspan x="-43" y="17">Towns</tspan></text></g></g></g><g id="citylist" transform="translate(230, 70) scale(1)" style="visibility: hidden;"><rect x="-30" y="-30" height="490" class="citylist" filter="url(#dropshadow)" width="630"/><g onmouseout="hide_Town_coords_citylist()" onmousemove="show_Town_coords_citylist(evt,0,0,&quot;0,0&quot;,0,0)" transform="translate(0,0)"><circle r="16" class="Town"/><text y="5" class="Town">00</text><text class="Town_name" x="25" y="5">0,0</text></g></g><g id="mapkey" transform="translate(230, 70) scale(1)" style="visibility: hidden;"><rect x="-30" y="-30" height="490" width="630" class="citylist" filter="url(#dropshadow)"/><g transform="translate(0,100)"><g transform="translate(0,0)"><polyline class="road" points="0,0 470,0"/><g transform="translate(465, 5)"><rect style="fill: #E87600;" x="-10" y="-22" width="120" height="32" filter="url(#dropshadow)"/><rect style="stroke: black; stroke-width:2; fill:none" x="-8" y="-20" width="117" height="29"/><text class="scale"><tspan x="0" y="-1">Offical Road</tspan></text></g></g><g transform="translate(0,50)"><polyline class="rail" stroke="#669966" points="0,0 470,0"/><g transform="translate(465, 5)"><rect style="fill: #E87600;" x="-10" y="-22" width="120" height="32" filter="url(#dropshadow)"/><rect style="stroke: black; stroke-width:2; fill:none" x="-8" y="-20" width="117" height="29"/><text class="scale"><tspan x="0" y="-1">Rail Road</tspan></text></g></g><g transform="translate(0,100)"><polyline class="canal" points="0,0 470,0"/><g transform="translate(465, 5)"><rect style="fill: #E87600;" x="-10" y="-22" width="120" height="32" filter="url(#dropshadow)"/><rect style="stroke: black; stroke-width:2; fill:none" x="-8" y="-20" width="117" height="29"/><text class="scale"><tspan x="0" y="-1">Canal</tspan></text></g></g><g transform="translate(0,150)"><polyline class="road_unofficial" points="0,0 470,0"/><g transform="translate(465, 5)"><rect style="fill: #E87600;" x="-10" y="-22" width="120" height="32" filter="url(#dropshadow)"/><rect style="stroke: black; stroke-width:2; fill:none" x="-8" y="-20" width="117" height="29"/><text class="scale"><tspan x="0" y="-1">Unoffical Road</tspan></text></g></g><g transform="translate(0,200)"><polyline class="road_historic" points="0,0 470,0"/><g transform="translate(465, 5)"><rect style="fill: #E87600;" x="-10" y="-22" width="120" height="32" filter="url(#dropshadow)"/><rect style="stroke: black; stroke-width:2; fill:none" x="-8" y="-20" width="117" height="29"/><text class="scale"><tspan x="0" y="-1">Historic Road</tspan></text></g></g></g></g><g transform="translate(512, 585)"><rect style="fill: #E87600;" x="-205" y="-18" width="410" height="25" filter="url(#dropshadow)"/><rect style="stroke: black; stroke-width:2; fill:none" x="-202" y="-16" width="405" height="21"/><a xlink:href="http://www.reddit.com/r/CivcraftRoads" target="_blank"><text class="link">
						w w w . r e d d i t . c o m / r / C i v c r a f t R o a
						d s
					</text></a></g><g id="citylist" transform="translate(230, 70) scale(1)" style="visibility: hidden;"><g id="Town_coords_citylist" visibility="hidden"><rect class="Town_coords" x="-100" y="-17" width="200" height="55" filter="url(#dropshadow)"/><text class="Town_coords_name" y="5" id="Town_coords_name_citylist">Unknown</text><text class="Town_coords" y="28" id="Town_coords_overworld_citylist">
					O: 	0,0
					</text></g><script type="text/ecmascript">
					
						Town_coords_citylist = document.getElementById('Town_coords_citylist');
						Town_coords_overworld_citylist = document.getElementById('Town_coords_overworld_citylist');
						Town_coords_name_citylist = document.getElementById('Town_coords_name_citylist');
					
				</script></g><g transform="translate(512, 40)"><rect style="fill: #E87600;" x="-150" y="-26" width="300" height="34" filter="url(#dropshadow)"/><rect style="stroke: black; stroke-width:2; fill:none" x="-148" y="-24" width="296" height="30"/><text class="title"><tspan x="0" y="0">CIVCRAFT ROAD MAP</tspan></text></g><rect style="stroke: black; stroke-width:2; fill:none" x="1" y="1" width="1022" height="598"/></svg>
